<?xml version='1.0' encoding='utf-8'?>
<svg xmlns="http://www.w3.org/2000/svg" width="1345" height="1e3" version="1.1" viewBox="0 0 355.86 264.58"> <g transform="translate(0 -32.417)"> <path d="m250.52 233.69v-106.91l-154.31-89.089v106.91z" fill="#333"/> <path d="m102.38 48.385v92.652l141.96 81.962v-92.652l-141.96-81.962" fill="#00e0ff"/> <path d="m96.211 37.694 6.1722-3.5635 154.31 89.089-6.1722 3.5636z" fill="#e6e6e6"/> <path d="m250.52 126.78 6.1722-3.5636v106.91l-6.1722 3.5636z" fill="#c2c2c2"/> <path d="m96.211 144.6-92.584 53.453 154.31 89.089 92.584-53.453z" fill="#e6e6e6"/> <path d="m3.627 198.05v7.1271l154.31 89.089v-7.1271z" fill="#dadada"/> <path d="m157.93 287.14v7.1271l98.756-57.017v-7.1271l-98.756 57.017" fill="#c2c2c2"/> <path d="m96.211 151.73 141.96 81.962-49.378 28.508-141.96-81.962 49.378-28.508" fill="#d4d4d4"/> <path d="m96.211 215.87-18.517 10.691 30.861 17.818 18.517-10.691z" fill="#d4d4d4"/> <path d="m256.69 123.22 98.756 57.017-98.756 57.017z" opacity=".05"/> <path d="m102.38 48.385 141.96 174.61-141.96-81.962z" fill="#00c5e0"/> </g> </svg>